<svg width="140" height="37" viewBox="0 0 140 37" fill="none" xmlns="http://www.w3.org/2000/svg">
<path d="M41.0338 17.4199H37.3588V24.1805C37.3588 24.7438 37.4997 25.1555 37.7815 25.4155C38.0634 25.6755 38.4753 25.8218 39.0174 25.8543C39.5594 25.8868 40.2315 25.8814 41.0338 25.838V29.6408C38.1501 29.9659 36.1175 29.695 34.9358 28.8283C33.7542 27.9615 33.1634 26.4122 33.1634 24.1805V17.4199H30.3339V13.3896H33.1634V10.1069L37.3588 8.8393V13.3896H41.0338V17.4199ZM47.1236 16.1848C47.5137 15.1447 48.159 14.3647 49.0588 13.8447C49.9582 13.3246 50.9611 13.0646 52.0671 13.0646V17.7449C50.7879 17.5932 49.644 17.8533 48.6357 18.525C47.6275 19.1967 47.1236 20.3127 47.1236 21.8727V29.6408H42.9282V13.3896H47.1236V16.1848ZM55.2623 11.732C54.5683 11.732 53.972 11.4828 53.4735 10.9844C52.9749 10.4861 52.7254 9.89016 52.7254 9.19677C52.7254 8.50342 52.9749 7.91293 53.4735 7.42539C53.972 6.93789 54.5683 6.69408 55.2623 6.69408C55.9345 6.69408 56.5196 6.94329 57.0186 7.44167C57.5172 7.94005 57.7667 8.52509 57.7667 9.19677C57.7667 9.89016 57.5172 10.4861 57.0186 10.9844C56.5196 11.4828 55.9345 11.732 55.2623 11.732ZM53.1807 29.6408V13.3896H57.3761V29.6408H53.1807ZM69.3524 12.9346C71.5425 12.9346 73.4122 13.7634 74.9627 15.421C76.5128 17.0786 77.2881 19.11 77.2881 21.5152C77.2881 23.9204 76.5128 25.9518 74.9627 27.6095C73.4122 29.267 71.5425 30.0959 69.3524 30.0959C67.0761 30.0959 65.3199 29.305 64.084 27.7232V36.1413H59.8885V13.3896H64.084V15.3073C65.3199 13.7255 67.0761 12.9346 69.3524 12.9346ZM65.3524 24.8143C66.1978 25.6701 67.2712 26.0981 68.5718 26.0981C69.8728 26.0981 70.9516 25.6701 71.8081 24.8143C72.6642 23.9584 73.0926 22.8587 73.0926 21.5152C73.0926 20.1718 72.6642 19.0721 71.8081 18.2162C70.9516 17.3603 69.8728 16.9324 68.5718 16.9324C67.2712 16.9324 66.1978 17.3603 65.3524 18.2162C64.5066 19.0721 64.084 20.1718 64.084 21.5152C64.084 22.8587 64.5066 23.9584 65.3524 24.8143ZM93.9151 29.6408H89.0367L83.1176 22.2574V29.6408H78.9221V6.8891H83.1176V20.5673L88.7114 13.3896H93.7196L87.1827 21.4177L93.9151 29.6408ZM107.355 27.6095C105.685 29.267 103.647 30.0959 101.241 30.0959C98.8341 30.0959 96.8015 29.267 95.1425 27.6095C93.4839 25.9518 92.6547 23.9204 92.6547 21.5152C92.6547 19.11 93.4839 17.0786 95.1425 15.421C96.8015 13.7634 98.8341 12.9346 101.241 12.9346C103.647 12.9346 105.685 13.7634 107.355 15.421C109.024 17.0786 109.859 19.11 109.859 21.5152C109.859 23.9204 109.024 25.9518 107.355 27.6095ZM98.1021 24.733C98.9367 25.578 99.9829 26.0006 101.241 26.0006C102.498 26.0006 103.549 25.578 104.395 24.733C105.241 23.8879 105.664 22.8153 105.664 21.5152C105.664 20.2151 105.241 19.1426 104.395 18.2975C103.549 17.4524 102.498 17.0299 101.241 17.0299C99.9829 17.0299 98.9367 17.4524 98.1021 18.2975C97.2674 19.1426 96.8501 20.2151 96.8501 21.5152C96.8501 22.8153 97.2674 23.8879 98.1021 24.733ZM111.493 29.6408V5.91406H115.689V29.6408H111.493ZM120.282 11.732C119.589 11.732 118.992 11.4828 118.494 10.9844C117.995 10.4861 117.746 9.89016 117.746 9.19677C117.746 8.50342 117.995 7.91293 118.494 7.42539C118.992 6.93789 119.589 6.69408 120.282 6.69408C120.954 6.69408 121.54 6.94329 122.039 7.44167C122.537 7.94005 122.787 8.52509 122.787 9.19677C122.787 9.89016 122.537 10.4861 122.039 10.9844C121.54 11.4828 120.954 11.732 120.282 11.732ZM118.201 29.6408V13.3896H122.397V29.6408H118.201ZM132.649 30.0959C130.199 30.0959 128.155 29.2725 126.518 27.6257C124.882 25.9789 124.063 23.9421 124.063 21.5152C124.063 19.0884 124.882 17.0515 126.518 15.4047C128.155 13.758 130.199 12.9346 132.649 12.9346C134.232 12.9346 135.673 13.3138 136.974 14.0722C138.275 14.8305 139.262 15.849 139.934 17.1274L136.324 19.2401C135.999 18.5684 135.506 18.0375 134.844 17.6474C134.183 17.2574 133.44 17.0624 132.617 17.0624C131.359 17.0624 130.318 17.4795 129.494 18.3137C128.671 19.148 128.259 20.2151 128.259 21.5152C128.259 22.7937 128.671 23.85 129.494 24.6842C130.318 25.5184 131.359 25.9356 132.617 25.9356C133.462 25.9356 134.215 25.746 134.877 25.3668C135.538 24.9876 136.031 24.4621 136.356 23.7904L139.999 25.8706C139.283 27.149 138.275 28.1728 136.974 28.9421C135.673 29.7113 134.232 30.0959 132.649 30.0959Z" fill="#EF9225"/>
<path fill-rule="evenodd" clip-rule="evenodd" d="M1.72593 28.6008C4.55615 28.7757 7.38639 28.9504 10.2166 29.1253C5.26643 26.4001 1.0766 22.7986 0.178126 23.484C-0.281866 23.8348 0.120844 25.3095 1.72593 28.6008Z" fill="#EF9225"/>
<path fill-rule="evenodd" clip-rule="evenodd" d="M1.48643 21.4905C4.4916 21.268 7.4967 21.0456 10.5019 20.8231C5.33301 18.5374 1.94282 15.8996 0.894483 16.5385C0.297263 16.9024 0.459892 18.3295 1.48643 21.4905Z" fill="#EF9225"/>
<path fill-rule="evenodd" clip-rule="evenodd" d="M3.01334 14.2082C5.74818 13.1912 8.48295 12.1742 11.2178 11.1572C7.07747 8.91479 5.28235 7.44567 4.39469 7.64974C3.50526 7.85421 3.52697 9.73862 3.01334 14.2082Z" fill="#EF9225"/>
<path fill-rule="evenodd" clip-rule="evenodd" d="M22.7606 28.6008C19.9304 28.7757 17.1002 28.9504 14.27 29.1253C19.2201 26.4001 23.41 22.7986 24.3084 23.484C24.7684 23.8348 24.3657 25.3095 22.7606 28.6008Z" fill="#EF9225"/>
<path fill-rule="evenodd" clip-rule="evenodd" d="M12.2433 30.6186L12.306 30.6181C15.3043 30.5964 18.2931 30.7626 18.9203 31.1977C19.2911 31.4549 18.1319 31.8576 15.6632 32.7549C13.6472 33.4876 12.9974 33.8603 12.2433 33.8357C11.4894 33.8603 10.8395 33.4876 8.8235 32.7549C6.35483 31.8576 5.19559 31.4549 5.56639 31.1977C6.19357 30.7626 9.18243 30.5964 12.1808 30.6181L12.2433 30.6186Z" fill="#EF9225"/>
<path fill-rule="evenodd" clip-rule="evenodd" d="M22.9998 21.4905C19.9947 21.268 16.9895 21.0456 13.9844 20.8231C19.1532 18.5374 22.5434 15.8996 23.5918 16.5385C24.189 16.9024 24.0264 18.3295 22.9998 21.4905Z" fill="#EF9225"/>
<path fill-rule="evenodd" clip-rule="evenodd" d="M20.1377 15.3897C15.1828 18.3424 13.713 19.8185 12.2432 19.8185C10.7735 19.8185 9.30364 18.3424 4.34879 15.3897C8.68606 13.7705 10.4142 12.9276 12.0352 12.8611C12.1047 12.8582 12.174 12.8569 12.2432 12.8569C12.3125 12.8569 12.3818 12.8582 12.4513 12.8611C14.0722 12.9276 15.8004 13.7705 20.1377 15.3897Z" fill="#EF9225"/>
<path fill-rule="evenodd" clip-rule="evenodd" d="M21.4742 14.2082C18.7393 13.1912 16.0045 12.1742 13.2697 11.1572C17.41 8.91479 19.2052 7.44567 20.0928 7.64974C20.9823 7.85421 20.9605 9.73862 21.4742 14.2082Z" fill="#EF9225"/>
<path fill-rule="evenodd" clip-rule="evenodd" d="M12.2668 10.5834C14.8868 7.79916 15.8653 6.9975 15.5603 5.85681C15.3032 4.89524 14.1337 3.69271 12.2668 0.858398C12.2588 0.870601 12.2509 0.882829 12.2429 0.895057L12.2429 0.895007V0.895057C12.2349 0.882829 12.227 0.870601 12.219 0.858398C10.352 3.69271 9.18266 4.89524 8.92553 5.85681C8.62056 6.9975 9.59899 7.79916 12.219 10.5834C12.227 10.5754 12.2349 10.5674 12.2429 10.5593V10.5593L12.2429 10.5593C12.2509 10.5674 12.2588 10.5754 12.2668 10.5834Z" fill="#EF9225"/>
<path fill-rule="evenodd" clip-rule="evenodd" d="M12.2432 27.996C10.8165 27.996 9.38974 26.4508 4.34879 23.3601C8.79675 22.6582 10.4589 22.2852 11.9462 22.2412C12.0458 22.2383 12.1445 22.2368 12.2432 22.2368C12.342 22.2368 12.4407 22.2383 12.5402 22.2412C14.0276 22.2852 15.6897 22.6582 20.1377 23.3601C15.0968 26.4508 13.67 27.996 12.2432 27.996Z" fill="#EF9225"/>
<path fill-rule="evenodd" clip-rule="evenodd" d="M2.4757 27.4878C2.15251 26.8033 1.68428 25.774 1.40134 24.9785C2.23437 25.4454 3.29735 26.1586 3.64512 26.3874C4.30329 26.8206 4.95899 27.2541 5.61754 27.6819C4.57028 27.6172 3.52299 27.5525 2.4757 27.4878Z" fill="#EF9225"/>
<path fill-rule="evenodd" clip-rule="evenodd" d="M2.31872 20.0173C2.07688 19.2117 1.77215 18.1036 1.7106 17.4468C2.44839 17.7108 3.73751 18.4213 4.10354 18.6192C4.79645 18.9939 5.48459 19.3666 6.17492 19.7318C4.88955 19.827 3.60418 19.9222 2.31872 20.0173Z" fill="#EF9225"/>
<path fill-rule="evenodd" clip-rule="evenodd" d="M4.36099 12.4726C4.43933 11.7047 4.51814 10.9369 4.61316 10.1727C4.64182 9.94247 4.7243 9.27504 4.83316 8.87158C5.29796 9.06281 6.06773 9.52309 6.30853 9.66449C7.03501 10.0911 7.75551 10.5191 8.47985 10.9409C7.10691 11.4515 5.73397 11.962 4.36099 12.4726Z" fill="#EF9225"/>
<path fill-rule="evenodd" clip-rule="evenodd" d="M22.011 27.4878C22.3343 26.8033 22.8025 25.774 23.0854 24.9785C22.2523 25.4454 21.1894 26.1586 20.8416 26.3874C20.1835 26.8206 19.5278 27.2541 18.8692 27.6819C19.9164 27.6172 20.9637 27.5525 22.011 27.4878Z" fill="#EF9225"/>
<path fill-rule="evenodd" clip-rule="evenodd" d="M16.6789 31.5463C16.523 31.5322 16.3924 31.5219 16.3076 31.5155C14.9849 31.4168 13.6388 31.3974 12.3127 31.407L12.2454 31.4075L12.1782 31.407C10.8521 31.3974 9.50598 31.4168 8.18334 31.5155C8.09849 31.5219 7.9679 31.5322 7.81204 31.5463C8.25207 31.709 8.69438 31.8669 9.13437 32.0269C9.82028 32.2761 10.4954 32.5499 11.1794 32.8009C11.4636 32.9052 11.8139 33.0337 12.1193 33.0469C12.1608 33.0487 12.2029 33.0484 12.2454 33.0462C12.2879 33.0484 12.3301 33.0487 12.3716 33.0469C12.677 33.0337 13.0273 32.9052 13.3116 32.8009C13.9955 32.5499 14.6706 32.2761 15.3565 32.0269C15.7965 31.8669 16.2388 31.709 16.6789 31.5463Z" fill="#EF9225"/>
<path fill-rule="evenodd" clip-rule="evenodd" d="M22.1681 20.0173C22.41 19.2117 22.7147 18.1036 22.7763 17.4468C22.0385 17.7108 20.7493 18.4213 20.3833 18.6192C19.6904 18.9939 19.0023 19.3666 18.3119 19.7318C19.5974 19.827 20.8827 19.9222 22.1681 20.0173Z" fill="#EF9225"/>
<path fill-rule="evenodd" clip-rule="evenodd" d="M17.5303 15.6293C16.6503 15.2883 15.7698 14.9489 14.8846 14.6319C14.1163 14.3568 13.2252 14.0504 12.4031 14.0167C12.3496 14.0145 12.2961 14.0135 12.2425 14.0137C12.189 14.0135 12.1355 14.0145 12.082 14.0167C11.2599 14.0504 10.3688 14.3568 9.60047 14.6319C8.71527 14.9489 7.83476 15.2883 6.95474 15.6293C7.35657 15.882 7.75679 16.1374 8.15571 16.3952C8.87055 16.8572 9.57989 17.3316 10.301 17.7834C10.7584 18.0699 11.6551 18.654 12.2425 18.6608C12.83 18.654 13.7267 18.0699 14.184 17.7834C14.9051 17.3316 15.6146 16.8572 16.3294 16.3952C16.7283 16.1374 17.1285 15.882 17.5303 15.6293Z" fill="#EF9225"/>
<path fill-rule="evenodd" clip-rule="evenodd" d="M20.1259 12.4726C20.0476 11.7047 19.9688 10.9369 19.8738 10.1727C19.8451 9.94247 19.7627 9.27504 19.6538 8.87158C19.189 9.06281 18.4192 9.52309 18.1784 9.66449C17.4519 10.0911 16.7314 10.5191 16.0071 10.9409C17.38 11.4515 18.753 11.962 20.1259 12.4726Z" fill="#EF9225"/>
<path fill-rule="evenodd" clip-rule="evenodd" d="M12.2431 9.22799C12.5247 8.93248 12.8063 8.63697 13.0858 8.33954C13.4293 7.97413 13.7873 7.59463 14.0941 7.19764C14.2237 7.02992 14.5056 6.69538 14.4417 6.45661C14.336 6.06131 13.8166 5.36908 13.5774 5.03664C13.1292 4.41387 12.6818 3.79834 12.2429 3.17529C11.804 3.79834 11.3567 4.41387 10.9085 5.03664C10.6693 5.36908 10.1498 6.06131 10.0441 6.45661C9.98027 6.69538 10.2622 7.02992 10.3918 7.19764C10.6985 7.59463 11.0566 7.97413 11.4001 8.33954C11.6796 8.63697 11.9612 8.93248 12.2428 9.22799L12.2429 9.22781L12.2431 9.22799Z" fill="#EF9225"/>
<path fill-rule="evenodd" clip-rule="evenodd" d="M12.2443 26.8387C11.7055 26.8342 10.7553 26.1787 10.3396 25.904C9.61869 25.4274 8.90849 24.933 8.19054 24.4516C7.97036 24.3039 7.74961 24.1571 7.52841 24.0112C8.16639 23.905 8.8045 23.799 9.4431 23.6961C10.2745 23.5622 11.1388 23.4226 11.9816 23.3976C12.0693 23.395 12.1568 23.3939 12.2443 23.3941C12.3318 23.3939 12.4194 23.395 12.5071 23.3976C13.3499 23.4226 14.2141 23.5622 15.0456 23.6961C15.6842 23.799 16.3223 23.905 16.9603 24.0112C16.739 24.1571 16.5183 24.3039 16.2981 24.4516C15.5802 24.933 14.87 25.4274 14.1491 25.904C13.7334 26.1787 12.7832 26.8342 12.2443 26.8387Z" fill="#EF9225"/>
</svg>
