<svg width="29" height="28" viewBox="0 0 29 28" fill="none" xmlns="http://www.w3.org/2000/svg">
<g clip-path="url(#clip0_1_533)">
<path d="M2.58484 29.9159C2.58484 28.4167 2.88012 26.9323 3.45382 25.5472C4.02752 24.1622 4.86841 22.9037 5.92848 21.8436C6.98854 20.7836 8.24702 19.9427 9.63206 19.369C11.0171 18.7953 12.5016 18.5 14.0007 18.5C15.4999 18.5 16.9844 18.7953 18.3694 19.369C19.7544 19.9427 21.0129 20.7836 22.073 21.8436C23.1331 22.9037 23.9739 24.1622 24.5476 25.5472C25.1213 26.9323 25.4166 28.4167 25.4166 29.9159" fill="#B0B0B0"/>
<path d="M2.58484 29.9159C2.58484 28.4167 2.88012 26.9323 3.45382 25.5472C4.02752 24.1622 4.86841 22.9037 5.92848 21.8436C6.98854 20.7836 8.24702 19.9427 9.63206 19.369C11.0171 18.7953 12.5016 18.5 14.0007 18.5C15.4999 18.5 16.9844 18.7953 18.3694 19.369C19.7544 19.9427 21.0129 20.7836 22.073 21.8436C23.1331 22.9037 23.9739 24.1622 24.5476 25.5472C25.1213 26.9323 25.4166 28.4167 25.4166 29.9159H14.0007H2.58484Z" stroke="#B0B0B0" stroke-width="1.25" stroke-linecap="round" stroke-linejoin="round"/>
<path d="M14.0009 14.75C15.3269 14.75 16.5987 14.2232 17.5364 13.2855C18.4741 12.3479 19.0009 11.0761 19.0009 9.75C19.0009 8.42392 18.4741 7.15215 17.5364 6.21447C16.5987 5.27678 15.3269 4.75 14.0009 4.75C12.6748 4.75 11.403 5.27678 10.4653 6.21447C9.52764 7.15215 9.00085 8.42392 9.00085 9.75C9.00085 11.0761 9.52764 12.3479 10.4653 13.2855C11.403 14.2232 12.6748 14.75 14.0009 14.75Z" fill="#B0B0B0" stroke="#B0B0B0" stroke-width="1.25" stroke-linecap="round" stroke-linejoin="round"/>
</g>
<defs>
<clipPath id="clip0_1_533">
<rect width="30" height="30" fill="white" transform="translate(0.000488281)"/>
</clipPath>
</defs>
</svg>
